<svg width="829px" height="347px"
 viewBox="0.00 0.00 829.00 347.00" xmlns="http://www.w3.org/2000/svg" xmlns:xlink="http://www.w3.org/1999/xlink"><g id="graph0" class="graph" transform=" rotate(0) translate(4 343)">
<title>%3</title>
<polygon fill="white" stroke="transparent" points="-4,4 -4,-343 825,-343 825,4 -4,4"/>
<text text-anchor="middle" x="410.5" y="-7.8" font-family="Times,serif" font-size="14.00">BusinessRuleRelationDiagram [2019.12.1]</text>
<g id="clust1" class="cluster">
<title>cluster_warikan.domain.model.members</title>
<polygon fill="lemonchiffon" stroke="#eedd82" stroke-width="2" points="8,-31 8,-256 283,-256 283,-31 8,-31"/>
<text text-anchor="middle" x="145.5" y="-240.8" font-family="Times,serif" font-size="14.00">members</text>
</g>
<g id="clust2" class="cluster">
<title>cluster_warikan.domain.model</title>
<polygon fill="lemonchiffon" stroke="#eedd82" stroke-width="2" points="291,-31 291,-331 813,-331 813,-31 291,-31"/>
<text text-anchor="middle" x="552" y="-315.8" font-family="Times,serif" font-size="14.00">warikan.domain.model</text>
</g>
<!-- warikan.domain.model.members.Member -->
<g id="node1" class="node">
<title>warikan.domain.model.members.Member</title>
<polygon fill="#eedd82" stroke="black" points="263.5,-151 186.5,-151 186.5,-113 263.5,-113 263.5,-151"/>
<text text-anchor="middle" x="225" y="-135.8" font-family="Times,serif" font-size="14.00">参加者</text>
<text text-anchor="middle" x="225" y="-120.8" font-family="Times,serif" font-size="14.00">Member</text>
</g>
<!-- warikan.domain.model.members.MemberName -->
<g id="node2" class="node">
<title>warikan.domain.model.members.MemberName</title>
<polygon fill="#eedd82" stroke="black" points="274.5,-77 155.5,-77 155.5,-39 274.5,-39 274.5,-77"/>
<text text-anchor="middle" x="215" y="-61.8" font-family="Times,serif" font-size="14.00">参加者名</text>
<text text-anchor="middle" x="215" y="-46.8" font-family="Times,serif" font-size="14.00">MemberName</text>
</g>
<!-- warikan.domain.model.members.Member&#45;&gt;warikan.domain.model.members.MemberName -->
<g id="edge17" class="edge">
<title>warikan.domain.model.members.Member&#45;&gt;warikan.domain.model.members.MemberName</title>
<path fill="none" stroke="black" d="M222.48,-112.83C221.41,-105.13 220.14,-95.97 218.95,-87.42"/>
<polygon fill="black" stroke="black" points="222.4,-86.84 217.56,-77.41 215.47,-87.8 222.4,-86.84"/>
</g>
<!-- warikan.domain.model.members.SecretaryType -->
<g id="node4" class="node">
<title>warikan.domain.model.members.SecretaryType</title>
<polygon fill="#eedd82" stroke="black" points="137.5,-77 16.5,-77 16.5,-39 137.5,-39 137.5,-77"/>
<text text-anchor="middle" x="77" y="-61.8" font-family="Times,serif" font-size="14.00">幹事区分</text>
<text text-anchor="middle" x="77" y="-46.8" font-family="Times,serif" font-size="14.00">SecretaryType</text>
</g>
<!-- warikan.domain.model.members.Member&#45;&gt;warikan.domain.model.members.SecretaryType -->
<g id="edge18" class="edge">
<title>warikan.domain.model.members.Member&#45;&gt;warikan.domain.model.members.SecretaryType</title>
<path fill="none" stroke="black" d="M187.65,-112.83C168.12,-103.33 144.04,-91.61 123.33,-81.54"/>
<polygon fill="black" stroke="black" points="124.6,-78.27 114.08,-77.04 121.54,-84.56 124.6,-78.27"/>
</g>
<!-- warikan.domain.model.PaymentType -->
<g id="node10" class="node">
<title>warikan.domain.model.PaymentType</title>
<polygon fill="#eedd82" stroke="black" points="450.5,-150 337.5,-150 337.5,-114 450.5,-114 450.5,-150"/>
<text text-anchor="middle" x="394" y="-128.3" font-family="Times,serif" font-size="14.00">PaymentType</text>
</g>
<!-- warikan.domain.model.members.Member&#45;&gt;warikan.domain.model.PaymentType -->
<g id="edge16" class="edge">
<title>warikan.domain.model.members.Member&#45;&gt;warikan.domain.model.PaymentType</title>
<path fill="none" stroke="black" d="M263.62,-132C284.87,-132 306.12,-132 327.37,-132"/>
<polygon fill="black" stroke="black" points="327.47,-135.5 337.47,-132 327.47,-128.5 327.47,-135.5"/>
</g>
<!-- warikan.domain.model.members.Members -->
<g id="node3" class="node">
<title>warikan.domain.model.members.Members</title>
<polygon fill="#eedd82" stroke="black" points="274.5,-225 143.5,-225 143.5,-187 274.5,-187 274.5,-225"/>
<text text-anchor="middle" x="209" y="-209.8" font-family="Times,serif" font-size="14.00">メンバーグループ</text>
<text text-anchor="middle" x="209" y="-194.8" font-family="Times,serif" font-size="14.00">Members</text>
</g>
<!-- warikan.domain.model.members.Members&#45;&gt;warikan.domain.model.members.Member -->
<g id="edge19" class="edge">
<title>warikan.domain.model.members.Members&#45;&gt;warikan.domain.model.members.Member</title>
<path fill="none" stroke="black" d="M213.04,-186.83C214.75,-179.13 216.78,-169.97 218.69,-161.42"/>
<polygon fill="black" stroke="black" points="222.16,-161.93 220.91,-151.41 215.32,-160.42 222.16,-161.93"/>
</g>
<!-- warikan.domain.model.members.Members&#45;&gt;warikan.domain.model.members.SecretaryType -->
<g id="edge20" class="edge">
<title>warikan.domain.model.members.Members&#45;&gt;warikan.domain.model.members.SecretaryType</title>
<path fill="none" stroke="black" d="M192.55,-186.8C169.43,-161.23 127.19,-114.51 100.69,-85.2"/>
<polygon fill="black" stroke="black" points="102.96,-82.5 93.66,-77.43 97.77,-87.19 102.96,-82.5"/>
</g>
<!-- warikan.domain.model.Cashier -->
<g id="node5" class="node">
<title>warikan.domain.model.Cashier</title>
<polygon fill="#eedd82" stroke="black" points="495.5,-224 424.5,-224 424.5,-188 495.5,-188 495.5,-224"/>
<text text-anchor="middle" x="460" y="-202.3" font-family="Times,serif" font-size="14.00">Cashier</text>
</g>
<!-- warikan.domain.model.Cashier&#45;&gt;warikan.domain.model.members.Member -->
<g id="edge5" class="edge">
<title>warikan.domain.model.Cashier&#45;&gt;warikan.domain.model.members.Member</title>
<path fill="none" stroke="black" d="M424.31,-194.06C384.08,-181.74 318.45,-161.63 273.58,-147.88"/>
<polygon fill="black" stroke="black" points="274.36,-144.46 263.77,-144.88 272.31,-151.15 274.36,-144.46"/>
</g>
<!-- warikan.domain.model.Money -->
<g id="node7" class="node">
<title>warikan.domain.model.Money</title>
<polygon fill="#eedd82" stroke="black" points="804.5,-77 739.5,-77 739.5,-39 804.5,-39 804.5,-77"/>
<text text-anchor="middle" x="772" y="-61.8" font-family="Times,serif" font-size="14.00">通貨</text>
<text text-anchor="middle" x="772" y="-46.8" font-family="Times,serif" font-size="14.00">Money</text>
</g>
<!-- warikan.domain.model.Cashier&#45;&gt;warikan.domain.model.Money -->
<g id="edge1" class="edge">
<title>warikan.domain.model.Cashier&#45;&gt;warikan.domain.model.Money</title>
<path fill="none" stroke="black" d="M466.52,-187.6C476.16,-162.3 493.73,-117.84 500,-113 579.67,-51.47 628.16,-102.71 729.21,-77.03"/>
<polygon fill="black" stroke="black" points="730.44,-80.32 739.16,-74.29 728.59,-73.57 730.44,-80.32"/>
</g>
<!-- warikan.domain.model.Payment -->
<g id="node9" class="node">
<title>warikan.domain.model.Payment</title>
<polygon fill="#eedd82" stroke="black" points="587.5,-150 508.5,-150 508.5,-114 587.5,-114 587.5,-150"/>
<text text-anchor="middle" x="548" y="-128.3" font-family="Times,serif" font-size="14.00">Payment</text>
</g>
<!-- warikan.domain.model.Cashier&#45;&gt;warikan.domain.model.Payment -->
<g id="edge2" class="edge">
<title>warikan.domain.model.Cashier&#45;&gt;warikan.domain.model.Payment</title>
<path fill="none" stroke="black" d="M480.85,-187.94C492.28,-178.59 506.61,-166.86 519.1,-156.65"/>
<polygon fill="black" stroke="black" points="521.47,-159.23 526.99,-150.19 517.03,-153.81 521.47,-159.23"/>
</g>
<!-- warikan.domain.model.Cashier&#45;&gt;warikan.domain.model.PaymentType -->
<g id="edge3" class="edge">
<title>warikan.domain.model.Cashier&#45;&gt;warikan.domain.model.PaymentType</title>
<path fill="none" stroke="black" d="M444.36,-187.94C436.18,-179.01 426.01,-167.92 416.95,-158.04"/>
<polygon fill="black" stroke="black" points="419.32,-155.45 409.99,-150.44 414.16,-160.18 419.32,-155.45"/>
</g>
<!-- warikan.domain.model.PaymentWeight -->
<g id="node12" class="node">
<title>warikan.domain.model.PaymentWeight</title>
<polygon fill="#eedd82" stroke="black" points="721.5,-77 472.5,-77 472.5,-39 721.5,-39 721.5,-77"/>
<text text-anchor="middle" x="597" y="-61.8" font-family="Times,serif" font-size="14.00">memo: 少ない人は0円のこともある</text>
<text text-anchor="middle" x="597" y="-46.8" font-family="Times,serif" font-size="14.00">PaymentWeight</text>
</g>
<!-- warikan.domain.model.Cashier&#45;&gt;warikan.domain.model.PaymentWeight -->
<g id="edge4" class="edge">
<title>warikan.domain.model.Cashier&#45;&gt;warikan.domain.model.PaymentWeight</title>
<path fill="none" stroke="black" d="M460.5,-187.8C461.95,-167.72 467.12,-134.51 485,-113 496.13,-99.61 511.37,-89.29 527.02,-81.45"/>
<polygon fill="black" stroke="black" points="528.69,-84.53 536.25,-77.11 525.71,-78.19 528.69,-84.53"/>
</g>
<!-- warikan.domain.model.Main -->
<g id="node6" class="node">
<title>warikan.domain.model.Main</title>
<polygon fill="#eedd82" stroke="black" points="411,-300 357,-300 357,-264 411,-264 411,-300"/>
<text text-anchor="middle" x="384" y="-278.3" font-family="Times,serif" font-size="14.00">Main</text>
</g>
<!-- warikan.domain.model.Main&#45;&gt;warikan.domain.model.members.Member -->
<g id="edge13" class="edge">
<title>warikan.domain.model.Main&#45;&gt;warikan.domain.model.members.Member</title>
<path fill="none" stroke="black" d="M356.95,-280.29C295.52,-278.4 149.68,-272.23 135,-256 114.43,-233.26 119.89,-213.69 135,-187 144.32,-170.54 160.87,-158.56 177.26,-150.12"/>
<polygon fill="black" stroke="black" points="178.8,-153.26 186.31,-145.79 175.78,-146.95 178.8,-153.26"/>
</g>
<!-- warikan.domain.model.Main&#45;&gt;warikan.domain.model.members.MemberName -->
<g id="edge14" class="edge">
<title>warikan.domain.model.Main&#45;&gt;warikan.domain.model.members.MemberName</title>
<path fill="none" stroke="black" d="M356.93,-280.49C292.26,-278.98 132.95,-273.51 117,-256 69.44,-203.78 141.7,-124.23 185.51,-84.06"/>
<polygon fill="black" stroke="black" points="187.97,-86.56 193.07,-77.27 183.29,-81.36 187.97,-86.56"/>
</g>
<!-- warikan.domain.model.Main&#45;&gt;warikan.domain.model.members.SecretaryType -->
<g id="edge15" class="edge">
<title>warikan.domain.model.Main&#45;&gt;warikan.domain.model.members.SecretaryType</title>
<path fill="none" stroke="black" d="M356.54,-280.56C288.31,-279.2 115.25,-274 97,-256 52.11,-211.74 61.27,-129.81 70.08,-86.88"/>
<polygon fill="black" stroke="black" points="73.5,-87.62 72.22,-77.1 66.66,-86.12 73.5,-87.62"/>
</g>
<!-- warikan.domain.model.Main&#45;&gt;warikan.domain.model.Cashier -->
<g id="edge6" class="edge">
<title>warikan.domain.model.Main&#45;&gt;warikan.domain.model.Cashier</title>
<path fill="none" stroke="black" d="M401.63,-263.84C411.6,-254.12 424.24,-241.82 435.2,-231.15"/>
<polygon fill="black" stroke="black" points="437.75,-233.55 442.47,-224.07 432.86,-228.54 437.75,-233.55"/>
</g>
<!-- warikan.domain.model.Main&#45;&gt;warikan.domain.model.Money -->
<g id="edge7" class="edge">
<title>warikan.domain.model.Main&#45;&gt;warikan.domain.model.Money</title>
<path fill="none" stroke="black" d="M411.16,-279.13C453.79,-275.87 534.23,-268.29 560,-256 644.82,-215.56 718.86,-129.06 752.6,-85.38"/>
<polygon fill="black" stroke="black" points="755.52,-87.32 758.8,-77.25 749.95,-83.08 755.52,-87.32"/>
</g>
<!-- warikan.domain.model.Party -->
<g id="node8" class="node">
<title>warikan.domain.model.Party</title>
<polygon fill="#eedd82" stroke="black" points="354.5,-224 299.5,-224 299.5,-188 354.5,-188 354.5,-224"/>
<text text-anchor="middle" x="327" y="-202.3" font-family="Times,serif" font-size="14.00">Party</text>
</g>
<!-- warikan.domain.model.Main&#45;&gt;warikan.domain.model.Party -->
<g id="edge8" class="edge">
<title>warikan.domain.model.Main&#45;&gt;warikan.domain.model.Party</title>
<path fill="none" stroke="black" d="M370.78,-263.84C363.51,-254.4 354.37,-242.53 346.31,-232.07"/>
<polygon fill="black" stroke="black" points="349.02,-229.86 340.15,-224.07 343.48,-234.13 349.02,-229.86"/>
</g>
<!-- warikan.domain.model.Main&#45;&gt;warikan.domain.model.Payment -->
<g id="edge9" class="edge">
<title>warikan.domain.model.Main&#45;&gt;warikan.domain.model.Payment</title>
<path fill="none" stroke="black" d="M411.15,-278.5C442.42,-275.09 491.28,-268.01 505,-256 532.77,-231.69 542.61,-188.4 546.09,-160.21"/>
<polygon fill="black" stroke="black" points="549.58,-160.52 547.14,-150.21 542.62,-159.79 549.58,-160.52"/>
</g>
<!-- warikan.domain.model.Main&#45;&gt;warikan.domain.model.PaymentType -->
<g id="edge10" class="edge">
<title>warikan.domain.model.Main&#45;&gt;warikan.domain.model.PaymentType</title>
<path fill="none" stroke="black" d="M385.17,-263.73C386.88,-238.33 390.1,-190.65 392.15,-160.43"/>
<polygon fill="black" stroke="black" points="395.66,-160.37 392.84,-150.16 388.67,-159.9 395.66,-160.37"/>
</g>
<!-- warikan.domain.model.PaymentTypeName -->
<g id="node11" class="node">
<title>warikan.domain.model.PaymentTypeName</title>
<polygon fill="#eedd82" stroke="black" points="454.5,-76 299.5,-76 299.5,-40 454.5,-40 454.5,-76"/>
<text text-anchor="middle" x="377" y="-54.3" font-family="Times,serif" font-size="14.00">PaymentTypeName</text>
</g>
<!-- warikan.domain.model.Main&#45;&gt;warikan.domain.model.PaymentTypeName -->
<g id="edge11" class="edge">
<title>warikan.domain.model.Main&#45;&gt;warikan.domain.model.PaymentTypeName</title>
<path fill="none" stroke="black" d="M381.51,-263.79C377.93,-240.43 370.99,-200.1 364,-187 353.49,-167.32 337.39,-171.68 329,-151 322.65,-135.35 323,-128.79 329,-113 333.16,-102.05 340.68,-91.9 348.55,-83.43"/>
<polygon fill="black" stroke="black" points="351.22,-85.7 355.78,-76.14 346.25,-80.77 351.22,-85.7"/>
</g>
<!-- warikan.domain.model.Main&#45;&gt;warikan.domain.model.PaymentWeight -->
<g id="edge12" class="edge">
<title>warikan.domain.model.Main&#45;&gt;warikan.domain.model.PaymentWeight</title>
<path fill="none" stroke="black" d="M411.11,-278.81C447.11,-275.47 508.32,-268.18 527,-256 573.98,-225.36 580.75,-204.68 597,-151 603.27,-130.3 602.9,-105.75 601.17,-87.23"/>
<polygon fill="black" stroke="black" points="604.63,-86.63 600.03,-77.09 597.67,-87.41 604.63,-86.63"/>
</g>
<!-- warikan.domain.model.Party&#45;&gt;warikan.domain.model.members.Member -->
<g id="edge22" class="edge">
<title>warikan.domain.model.Party&#45;&gt;warikan.domain.model.members.Member</title>
<path fill="none" stroke="black" d="M302.83,-187.94C289.73,-178.69 273.33,-167.11 258.96,-156.97"/>
<polygon fill="black" stroke="black" points="260.97,-154.11 250.78,-151.2 256.93,-159.83 260.97,-154.11"/>
</g>
<!-- warikan.domain.model.Party&#45;&gt;warikan.domain.model.PaymentType -->
<g id="edge21" class="edge">
<title>warikan.domain.model.Party&#45;&gt;warikan.domain.model.PaymentType</title>
<path fill="none" stroke="black" d="M342.88,-187.94C351.18,-179.01 361.51,-167.92 370.7,-158.04"/>
<polygon fill="black" stroke="black" points="373.52,-160.15 377.77,-150.44 368.4,-155.38 373.52,-160.15"/>
</g>
<!-- warikan.domain.model.Payment&#45;&gt;warikan.domain.model.members.Member -->
<g id="edge24" class="edge">
<title>warikan.domain.model.Payment&#45;&gt;warikan.domain.model.members.Member</title>
<path fill="none" stroke="black" d="M524.65,-150.02C513.58,-157.45 499.78,-165.2 486,-169 404.59,-191.44 378.02,-189.09 296,-169 284.62,-166.21 273.03,-161.25 262.61,-155.84"/>
<polygon fill="black" stroke="black" points="264.24,-152.75 253.79,-151.02 260.89,-158.89 264.24,-152.75"/>
</g>
<!-- warikan.domain.model.Payment&#45;&gt;warikan.domain.model.Money -->
<g id="edge23" class="edge">
<title>warikan.domain.model.Payment&#45;&gt;warikan.domain.model.Money</title>
<path fill="none" stroke="black" d="M587.74,-120.84C623.01,-111.47 676.03,-96.55 729.79,-77.25"/>
<polygon fill="black" stroke="black" points="731.28,-80.43 739.48,-73.72 728.88,-73.85 731.28,-80.43"/>
</g>
<!-- warikan.domain.model.PaymentType&#45;&gt;warikan.domain.model.PaymentTypeName -->
<g id="edge25" class="edge">
<title>warikan.domain.model.PaymentType&#45;&gt;warikan.domain.model.PaymentTypeName</title>
<path fill="none" stroke="black" d="M389.97,-113.94C388.03,-105.72 385.66,-95.66 383.47,-86.41"/>
<polygon fill="black" stroke="black" points="386.82,-85.37 381.12,-76.44 380.01,-86.98 386.82,-85.37"/>
</g>
<!-- warikan.domain.model.PaymentType&#45;&gt;warikan.domain.model.PaymentWeight -->
<g id="edge26" class="edge">
<title>warikan.domain.model.PaymentType&#45;&gt;warikan.domain.model.PaymentWeight</title>
<path fill="none" stroke="black" d="M442.11,-113.94C470.36,-103.92 506.32,-91.16 536.48,-80.47"/>
<polygon fill="black" stroke="black" points="537.79,-83.71 546.05,-77.07 535.45,-77.12 537.79,-83.71"/>
</g>
</g>
</svg>
