<svg width="330px" height="378px"
 viewBox="0.00 0.00 330.00 378.00" xmlns="http://www.w3.org/2000/svg" xmlns:xlink="http://www.w3.org/1999/xlink"><g id="graph0" class="graph" transform=" rotate(0) translate(4 374)">
<title>JIG</title>
<polygon fill="white" stroke="transparent" points="-4,4 -4,-374 326,-374 326,4 -4,4"/>
<text text-anchor="middle" x="161" y="-7.8" font-family="Times,serif" font-size="14.00">CategoryUsageDiagram [2019.12.1]</text>
<g id="clust1" class="cluster">
<title>cluster_legend</title>
<polygon fill="none" stroke="black" points="25,-31 25,-160 106,-160 106,-31 25,-31"/>
<text text-anchor="middle" x="65.5" y="-144.8" font-family="Times,serif" font-size="14.00">Legend</text>
</g>
<!-- enum -->
<g id="node1" class="node">
<title>enum</title>
<polygon fill="#eedd82" stroke="black" points="93.5,-129 37.5,-129 37.5,-93 93.5,-93 93.5,-129"/>
<text text-anchor="middle" x="65.5" y="-107.3" font-family="Times,serif" font-size="14.00">enum</text>
</g>
<!-- Others -->
<g id="node2" class="node">
<title>Others</title>
<polygon fill="lightyellow" stroke="black" points="98,-75 33,-75 33,-39 98,-39 98,-75"/>
<text text-anchor="middle" x="65.5" y="-53.3" font-family="Times,serif" font-size="14.00">Others</text>
</g>
<!-- warikan.domain.model.PaymentTypeName -->
<g id="node3" class="node">
<title>warikan.domain.model.PaymentTypeName</title>
<polygon fill="#eedd82" stroke="black" points="322,-343 167,-343 167,-307 322,-307 322,-343"/>
<text text-anchor="middle" x="244.5" y="-321.3" font-family="Times,serif" font-size="14.00">PaymentTypeName</text>
</g>
<!-- warikan.domain.model.members.SecretaryType -->
<g id="node4" class="node">
<title>warikan.domain.model.members.SecretaryType</title>
<polygon fill="#eedd82" stroke="black" points="305,-262 184,-262 184,-224 305,-224 305,-262"/>
<text text-anchor="middle" x="244.5" y="-246.8" font-family="Times,serif" font-size="14.00">幹事区分</text>
<text text-anchor="middle" x="244.5" y="-231.8" font-family="Times,serif" font-size="14.00">SecretaryType</text>
</g>
<!-- warikan.domain.model.Main -->
<g id="node5" class="node">
<title>warikan.domain.model.Main</title>
<polygon fill="lightyellow" stroke="black" points="92.5,-316 38.5,-316 38.5,-280 92.5,-280 92.5,-316"/>
<text text-anchor="middle" x="65.5" y="-294.3" font-family="Times,serif" font-size="14.00">Main</text>
</g>
<!-- warikan.domain.model.Main&#45;&gt;warikan.domain.model.PaymentTypeName -->
<g id="edge4" class="edge">
<title>warikan.domain.model.Main&#45;&gt;warikan.domain.model.PaymentTypeName</title>
<path fill="none" stroke="black" d="M92.62,-301.98C109.78,-304.6 133.32,-308.19 156.7,-311.76"/>
<polygon fill="black" stroke="black" points="156.27,-315.23 166.69,-313.28 157.33,-308.31 156.27,-315.23"/>
</g>
<!-- warikan.domain.model.Main&#45;&gt;warikan.domain.model.members.SecretaryType -->
<g id="edge1" class="edge">
<title>warikan.domain.model.Main&#45;&gt;warikan.domain.model.members.SecretaryType</title>
<path fill="none" stroke="black" d="M92.62,-289.88C114.13,-283.2 145.65,-273.41 174.32,-264.5"/>
<polygon fill="black" stroke="black" points="175.41,-267.82 183.92,-261.51 173.33,-261.14 175.41,-267.82"/>
</g>
<!-- warikan.domain.model.members.Member -->
<g id="node6" class="node">
<title>warikan.domain.model.members.Member</title>
<polygon fill="lightyellow" stroke="black" points="104,-262 27,-262 27,-224 104,-224 104,-262"/>
<text text-anchor="middle" x="65.5" y="-246.8" font-family="Times,serif" font-size="14.00">参加者</text>
<text text-anchor="middle" x="65.5" y="-231.8" font-family="Times,serif" font-size="14.00">Member</text>
</g>
<!-- warikan.domain.model.members.Member&#45;&gt;warikan.domain.model.members.SecretaryType -->
<g id="edge2" class="edge">
<title>warikan.domain.model.members.Member&#45;&gt;warikan.domain.model.members.SecretaryType</title>
<path fill="none" stroke="black" d="M104.04,-243C124.28,-243 149.92,-243 173.68,-243"/>
<polygon fill="black" stroke="black" points="173.73,-246.5 183.73,-243 173.73,-239.5 173.73,-246.5"/>
</g>
<!-- warikan.domain.model.members.Members -->
<g id="node7" class="node">
<title>warikan.domain.model.members.Members</title>
<polygon fill="lightyellow" stroke="black" points="131,-206 0,-206 0,-168 131,-168 131,-206"/>
<text text-anchor="middle" x="65.5" y="-190.8" font-family="Times,serif" font-size="14.00">メンバーグループ</text>
<text text-anchor="middle" x="65.5" y="-175.8" font-family="Times,serif" font-size="14.00">Members</text>
</g>
<!-- warikan.domain.model.members.Members&#45;&gt;warikan.domain.model.members.SecretaryType -->
<g id="edge3" class="edge">
<title>warikan.domain.model.members.Members&#45;&gt;warikan.domain.model.members.SecretaryType</title>
<path fill="none" stroke="black" d="M126.92,-206.12C142.18,-210.94 158.68,-216.16 174.34,-221.12"/>
<polygon fill="black" stroke="black" points="173.36,-224.48 183.95,-224.16 175.48,-217.81 173.36,-224.48"/>
</g>
<!-- warikan.domain.model.PaymentType -->
<g id="node8" class="node">
<title>warikan.domain.model.PaymentType</title>
<polygon fill="lightyellow" stroke="black" points="122,-370 9,-370 9,-334 122,-334 122,-370"/>
<text text-anchor="middle" x="65.5" y="-348.3" font-family="Times,serif" font-size="14.00">PaymentType</text>
</g>
<!-- warikan.domain.model.PaymentType&#45;&gt;warikan.domain.model.PaymentTypeName -->
<g id="edge5" class="edge">
<title>warikan.domain.model.PaymentType&#45;&gt;warikan.domain.model.PaymentTypeName</title>
<path fill="none" stroke="black" d="M122.02,-343.53C133.11,-341.84 145,-340.03 156.85,-338.22"/>
<polygon fill="black" stroke="black" points="157.42,-341.67 166.78,-336.7 156.36,-334.75 157.42,-341.67"/>
</g>
</g>
</svg>
