<svg width="394px" height="360px"
 viewBox="0.00 0.00 393.50 360.00" xmlns="http://www.w3.org/2000/svg" xmlns:xlink="http://www.w3.org/1999/xlink"><g id="graph0" class="graph" transform=" rotate(0) translate(4 356)">
<title>%3</title>
<polygon fill="white" stroke="transparent" points="-4,4 -4,-356 389.5,-356 389.5,4 -4,4"/>
<text text-anchor="middle" x="192.75" y="-7.8" font-family="Times,serif" font-size="14.00">PackageRelationDiagram [2019.12.2]</text>
<g id="clust1" class="cluster">
<title>cluster_warikan.domain.model.amount</title>
<polygon fill="lemonchiffon" stroke="#eedd82" stroke-width="2" points="252,-87 252,-234 324,-234 324,-87 252,-87"/>
<text text-anchor="middle" x="288" y="-218.8" font-family="Times,serif" font-size="14.00">amount</text>
</g>
<!-- summary -->
<g id="node1" class="node">
<title>summary</title>
<polygon fill="none" stroke="black" points="182,-352 0,-352 0,-314 188,-314 188,-346 182,-352"/>
<polyline fill="none" stroke="black" points="182,-352 182,-346 "/>
<polyline fill="none" stroke="black" points="188,-346 182,-346 "/>
<text text-anchor="start" x="8" y="-336.8" font-family="Times,serif" font-size="14.00">Number of packages: 6</text>
<text text-anchor="start" x="8" y="-321.8" font-family="Times,serif" font-size="14.00">Number of relations: 12</text>
</g>
<!-- warikan.domain.model.amount -->
<g id="node2" class="node">
<title>warikan.domain.model.amount</title>
<polygon fill="#eedd82" stroke="black" points="267.5,-278 196.5,-278 196.5,-242 267.5,-242 267.5,-278"/>
<text text-anchor="middle" x="232" y="-256.3" font-family="Times,serif" font-size="14.00">amount</text>
</g>
<!-- warikan.domain.model.members -->
<g id="node3" class="node">
<title>warikan.domain.model.members</title>
<polygon fill="#eedd82" stroke="black" points="204.5,-59 121.5,-59 121.5,-23 204.5,-23 204.5,-59"/>
<text text-anchor="middle" x="163" y="-37.3" font-family="Times,serif" font-size="14.00">members</text>
</g>
<!-- warikan.domain.model.amount&#45;&gt;warikan.domain.model.members -->
<g id="edge1" class="edge">
<title>warikan.domain.model.amount&#45;&gt;warikan.domain.model.members</title>
<path fill="none" stroke="black" d="M226.59,-241.97C214.65,-204.43 185.99,-114.3 171.58,-68.98"/>
<polygon fill="black" stroke="black" points="174.85,-67.72 168.48,-59.25 168.18,-69.84 174.85,-67.72"/>
</g>
<!-- warikan.domain.model.amount.rate -->
<g id="node4" class="node">
<title>warikan.domain.model.amount.rate</title>
<polygon fill="#eedd82" stroke="black" points="314,-203 260,-203 260,-167 314,-167 314,-203"/>
<text text-anchor="middle" x="287" y="-181.3" font-family="Times,serif" font-size="14.00">rate</text>
</g>
<!-- warikan.domain.model.amount&#45;&gt;warikan.domain.model.amount.rate -->
<g id="edge2" class="edge">
<title>warikan.domain.model.amount&#45;&gt;warikan.domain.model.amount.rate</title>
<path fill="none" stroke="black" d="M245.03,-241.7C251.88,-232.61 260.41,-221.3 267.98,-211.25"/>
<polygon fill="black" stroke="black" points="270.84,-213.27 274.06,-203.18 265.25,-209.06 270.84,-213.27"/>
</g>
<!-- warikan.domain.model.amount.rate&#45;&gt;warikan.domain.model.members -->
<g id="edge3" class="edge">
<title>warikan.domain.model.amount.rate&#45;&gt;warikan.domain.model.members</title>
<path fill="none" stroke="black" d="M272.04,-166.87C250.26,-141.92 209.67,-95.45 184.63,-66.77"/>
<polygon fill="black" stroke="black" points="187.22,-64.42 178.01,-59.19 181.95,-69.02 187.22,-64.42"/>
</g>
<!-- warikan.domain.model.amount.types -->
<g id="node5" class="node">
<title>warikan.domain.model.amount.types</title>
<polygon fill="#eedd82" stroke="black" points="316,-131 260,-131 260,-95 316,-95 316,-131"/>
<text text-anchor="middle" x="288" y="-109.3" font-family="Times,serif" font-size="14.00">types</text>
</g>
<!-- warikan.domain.model.amount.rate&#45;&gt;warikan.domain.model.amount.types -->
<g id="edge4" class="edge">
<title>warikan.domain.model.amount.rate&#45;&gt;warikan.domain.model.amount.types</title>
<path fill="none" stroke="black" d="M287.25,-166.7C287.36,-158.98 287.49,-149.71 287.61,-141.11"/>
<polygon fill="black" stroke="black" points="291.11,-141.15 287.76,-131.1 284.11,-141.05 291.11,-141.15"/>
</g>
<!-- warikan.domain.model.payment_type -->
<g id="node6" class="node">
<title>warikan.domain.model.payment_type</title>
<polygon fill="#eedd82" stroke="black" points="346.5,-59 229.5,-59 229.5,-23 346.5,-23 346.5,-59"/>
<text text-anchor="middle" x="288" y="-37.3" font-family="Times,serif" font-size="14.00">payment_type</text>
</g>
<!-- warikan.domain.model.amount.rate&#45;&gt;warikan.domain.model.payment_type -->
<g id="edge5" class="edge">
<title>warikan.domain.model.amount.rate&#45;&gt;warikan.domain.model.payment_type</title>
<path fill="none" stroke="black" d="M271.39,-166.77C263.63,-157.03 255.05,-144.18 251,-131 245.25,-112.31 244.4,-105.41 251,-87 253.53,-79.93 257.71,-73.18 262.36,-67.15"/>
<polygon fill="black" stroke="black" points="265.11,-69.32 268.89,-59.42 259.77,-64.8 265.11,-69.32"/>
</g>
<!-- warikan.domain.model.amount.types&#45;&gt;warikan.domain.model.members -->
<g id="edge6" class="edge">
<title>warikan.domain.model.amount.types&#45;&gt;warikan.domain.model.members</title>
<path fill="none" stroke="black" d="M259.95,-96.29C243,-86.8 221.13,-74.55 202.46,-64.1"/>
<polygon fill="black" stroke="black" points="204.02,-60.96 193.58,-59.13 200.6,-67.07 204.02,-60.96"/>
</g>
<!-- warikan.domain.model.amount.types&#45;&gt;warikan.domain.model.payment_type -->
<g id="edge7" class="edge">
<title>warikan.domain.model.amount.types&#45;&gt;warikan.domain.model.payment_type</title>
<path fill="none" stroke="black" d="M288,-94.7C288,-86.98 288,-77.71 288,-69.11"/>
<polygon fill="black" stroke="black" points="291.5,-69.1 288,-59.1 284.5,-69.1 291.5,-69.1"/>
</g>
<!-- warikan.domain.model -->
<g id="node7" class="node">
<title>warikan.domain.model</title>
<polygon fill="#eedd82" stroke="black" points="385.5,-351 206.5,-351 206.5,-315 385.5,-315 385.5,-351"/>
<text text-anchor="middle" x="296" y="-329.3" font-family="Times,serif" font-size="14.00">warikan.domain.model</text>
</g>
<!-- warikan.domain.model&#45;&gt;warikan.domain.model.amount -->
<g id="edge8" class="edge">
<title>warikan.domain.model&#45;&gt;warikan.domain.model.amount</title>
<path fill="none" stroke="black" d="M280.51,-314.81C272.57,-306 262.76,-295.13 254.05,-285.46"/>
<polygon fill="black" stroke="black" points="256.65,-283.11 247.35,-278.03 251.45,-287.8 256.65,-283.11"/>
</g>
<!-- warikan.domain.model&#45;&gt;warikan.domain.model.members -->
<g id="edge9" class="edge">
<title>warikan.domain.model&#45;&gt;warikan.domain.model.members</title>
<path fill="none" stroke="black" d="M236.74,-314.97C218.28,-306.75 199.71,-294.88 188,-278 143.67,-214.08 151.13,-116.09 158.1,-69.04"/>
<polygon fill="black" stroke="black" points="161.58,-69.44 159.69,-59.01 154.67,-68.34 161.58,-69.44"/>
</g>
<!-- warikan.domain.model&#45;&gt;warikan.domain.model.amount.rate -->
<g id="edge10" class="edge">
<title>warikan.domain.model&#45;&gt;warikan.domain.model.amount.rate</title>
<path fill="none" stroke="black" d="M294.95,-314.97C293.41,-290.04 290.54,-243.37 288.7,-213.54"/>
<polygon fill="black" stroke="black" points="292.18,-213.14 288.07,-203.38 285.19,-213.57 292.18,-213.14"/>
</g>
<!-- warikan.domain.model&#45;&gt;warikan.domain.model.amount.types -->
<g id="edge11" class="edge">
<title>warikan.domain.model&#45;&gt;warikan.domain.model.amount.types</title>
<path fill="none" stroke="black" d="M303.82,-314.81C316.54,-284.44 338.78,-219.54 323,-167 320.08,-157.28 314.74,-147.7 309.09,-139.41"/>
<polygon fill="black" stroke="black" points="311.9,-137.32 303.18,-131.3 306.24,-141.44 311.9,-137.32"/>
</g>
<!-- warikan.domain.model&#45;&gt;warikan.domain.model.payment_type -->
<g id="edge12" class="edge">
<title>warikan.domain.model&#45;&gt;warikan.domain.model.payment_type</title>
<path fill="none" stroke="black" d="M312.01,-314.92C320.37,-304.94 329.89,-291.65 335,-278 341.88,-259.61 338.11,-253.62 339,-234 341.97,-168.55 355.41,-146.51 328,-87 324.62,-79.66 319.63,-72.64 314.31,-66.43"/>
<polygon fill="black" stroke="black" points="316.84,-64.01 307.5,-59.02 311.69,-68.75 316.84,-64.01"/>
</g>
</g>
</svg>
