<svg width="766px" height="347px"
 viewBox="0.00 0.00 766.00 347.00" xmlns="http://www.w3.org/2000/svg" xmlns:xlink="http://www.w3.org/1999/xlink"><g id="graph0" class="graph" transform=" rotate(0) translate(4 343)">
<polygon fill="white" stroke="transparent" points="-4,4 -4,-343 762,-343 762,4 -4,4"/>
<text text-anchor="middle" x="379" y="-7.8" font-family="Times New Roman,serif" font-size="14.00">ビジネスルール関連図 [2019.12.1]</text>
<g id="clust2" class="cluster">
<title>cluster_warikan.domain.model</title>
<polygon fill="lemonchiffon" stroke="#eedd82" stroke-width="2" points="244,-31 244,-331 750,-331 750,-31 244,-31"/>
<text text-anchor="middle" x="497" y="-315.8" font-family="Times New Roman,serif" font-size="14.00">warikan.domain.model</text>
</g>
<g id="clust1" class="cluster">
<title>cluster_warikan.domain.model.members</title>
<polygon fill="lemonchiffon" stroke="#eedd82" stroke-width="2" points="8,-31 8,-256 236,-256 236,-31 8,-31"/>
<text text-anchor="middle" x="122" y="-240.8" font-family="Times New Roman,serif" font-size="14.00">members</text>
</g>
<!-- warikan.domain.model.members.Member -->
<g id="node1" class="node">
<title>warikan.domain.model.members.Member</title>
<polygon fill="#eedd82" stroke="black" points="221,-151 153,-151 153,-113 221,-113 221,-151"/>
<text text-anchor="middle" x="187" y="-135.8" font-family="Times New Roman,serif" font-size="14.00">参加者</text>
<text text-anchor="middle" x="187" y="-120.8" font-family="Times New Roman,serif" font-size="14.00">Member</text>
</g>
<!-- warikan.domain.model.members.MemberName -->
<g id="node2" class="node">
<title>warikan.domain.model.members.MemberName</title>
<polygon fill="#eedd82" stroke="black" points="227.5,-77 132.5,-77 132.5,-39 227.5,-39 227.5,-77"/>
<text text-anchor="middle" x="180" y="-61.8" font-family="Times New Roman,serif" font-size="14.00">参加者名</text>
<text text-anchor="middle" x="180" y="-46.8" font-family="Times New Roman,serif" font-size="14.00">MemberName</text>
</g>
<!-- warikan.domain.model.members.Member&#45;&gt;warikan.domain.model.members.MemberName -->
<g id="edge17" class="edge">
<title>warikan.domain.model.members.Member&#45;&gt;warikan.domain.model.members.MemberName</title>
<path fill="none" stroke="black" d="M185.23,-112.83C184.48,-105.13 183.59,-95.97 182.76,-87.42"/>
<polygon fill="black" stroke="black" points="186.24,-87.03 181.79,-77.41 179.27,-87.71 186.24,-87.03"/>
</g>
<!-- warikan.domain.model.members.SecretaryType -->
<g id="node4" class="node">
<title>warikan.domain.model.members.SecretaryType</title>
<polygon fill="#eedd82" stroke="black" points="114,-77 16,-77 16,-39 114,-39 114,-77"/>
<text text-anchor="middle" x="65" y="-61.8" font-family="Times New Roman,serif" font-size="14.00">幹事区分</text>
<text text-anchor="middle" x="65" y="-46.8" font-family="Times New Roman,serif" font-size="14.00">SecretaryType</text>
</g>
<!-- warikan.domain.model.members.Member&#45;&gt;warikan.domain.model.members.SecretaryType -->
<g id="edge18" class="edge">
<title>warikan.domain.model.members.Member&#45;&gt;warikan.domain.model.members.SecretaryType</title>
<path fill="none" stroke="black" d="M156.21,-112.83C140.61,-103.62 121.48,-92.33 104.77,-82.47"/>
<polygon fill="black" stroke="black" points="106.17,-79.23 95.78,-77.16 102.61,-85.26 106.17,-79.23"/>
</g>
<!-- warikan.domain.model.PaymentType -->
<g id="node10" class="node">
<title>warikan.domain.model.PaymentType</title>
<polygon fill="#eedd82" stroke="black" points="392,-150 298,-150 298,-114 392,-114 392,-150"/>
<text text-anchor="middle" x="345" y="-128.3" font-family="Times New Roman,serif" font-size="14.00">PaymentType</text>
</g>
<!-- warikan.domain.model.members.Member&#45;&gt;warikan.domain.model.PaymentType -->
<g id="edge16" class="edge">
<title>warikan.domain.model.members.Member&#45;&gt;warikan.domain.model.PaymentType</title>
<path fill="none" stroke="black" d="M221.25,-132C243.33,-132 265.41,-132 287.48,-132"/>
<polygon fill="black" stroke="black" points="287.63,-135.5 297.63,-132 287.63,-128.5 287.63,-135.5"/>
</g>
<!-- warikan.domain.model.members.Members -->
<g id="node3" class="node">
<title>warikan.domain.model.members.Members</title>
<polygon fill="#eedd82" stroke="black" points="227.5,-225 72.5,-225 72.5,-187 227.5,-187 227.5,-225"/>
<text text-anchor="middle" x="150" y="-209.8" font-family="Times New Roman,serif" font-size="14.00">メンバーグループ</text>
<text text-anchor="middle" x="150" y="-194.8" font-family="Times New Roman,serif" font-size="14.00">Members</text>
</g>
<!-- warikan.domain.model.members.Members&#45;&gt;warikan.domain.model.members.Member -->
<g id="edge19" class="edge">
<title>warikan.domain.model.members.Members&#45;&gt;warikan.domain.model.members.Member</title>
<path fill="none" stroke="black" d="M159.34,-186.83C163.42,-178.88 168.31,-169.37 172.83,-160.57"/>
<polygon fill="black" stroke="black" points="176.08,-161.91 177.54,-151.41 169.85,-158.71 176.08,-161.91"/>
</g>
<!-- warikan.domain.model.members.Members&#45;&gt;warikan.domain.model.members.SecretaryType -->
<g id="edge20" class="edge">
<title>warikan.domain.model.members.Members&#45;&gt;warikan.domain.model.members.SecretaryType</title>
<path fill="none" stroke="black" d="M139.41,-186.8C124.71,-161.56 98.01,-115.71 80.91,-86.34"/>
<polygon fill="black" stroke="black" points="83.78,-84.31 75.73,-77.43 77.73,-87.83 83.78,-84.31"/>
</g>
<!-- warikan.domain.model.Cashier -->
<g id="node5" class="node">
<title>warikan.domain.model.Cashier</title>
<polygon fill="#eedd82" stroke="black" points="432.5,-224 373.5,-224 373.5,-188 432.5,-188 432.5,-224"/>
<text text-anchor="middle" x="403" y="-202.3" font-family="Times New Roman,serif" font-size="14.00">Cashier</text>
</g>
<!-- warikan.domain.model.Cashier&#45;&gt;warikan.domain.model.members.Member -->
<g id="edge5" class="edge">
<title>warikan.domain.model.Cashier&#45;&gt;warikan.domain.model.members.Member</title>
<path fill="none" stroke="black" d="M373.23,-195.21C340.54,-184.45 286.49,-166.6 240,-151 237.05,-150.01 234.02,-148.99 230.96,-147.96"/>
<polygon fill="black" stroke="black" points="231.79,-144.55 221.2,-144.66 229.55,-151.18 231.79,-144.55"/>
</g>
<!-- warikan.domain.model.Money -->
<g id="node7" class="node">
<title>warikan.domain.model.Money</title>
<polygon fill="#eedd82" stroke="black" points="742,-77 686,-77 686,-39 742,-39 742,-77"/>
<text text-anchor="middle" x="714" y="-61.8" font-family="Times New Roman,serif" font-size="14.00">通貨</text>
<text text-anchor="middle" x="714" y="-46.8" font-family="Times New Roman,serif" font-size="14.00">Money</text>
</g>
<!-- warikan.domain.model.Cashier&#45;&gt;warikan.domain.model.Money -->
<g id="edge1" class="edge">
<title>warikan.domain.model.Cashier&#45;&gt;warikan.domain.model.Money</title>
<path fill="none" stroke="black" d="M409.33,-187.6C418.69,-162.3 435.77,-117.85 442,-113 522.89,-50.1 573.03,-104.93 675.88,-76.72"/>
<polygon fill="black" stroke="black" points="677.07,-80.02 685.67,-73.83 675.08,-73.31 677.07,-80.02"/>
</g>
<!-- warikan.domain.model.Payment -->
<g id="node9" class="node">
<title>warikan.domain.model.Payment</title>
<polygon fill="#eedd82" stroke="black" points="515.5,-150 450.5,-150 450.5,-114 515.5,-114 515.5,-150"/>
<text text-anchor="middle" x="483" y="-128.3" font-family="Times New Roman,serif" font-size="14.00">Payment</text>
</g>
<!-- warikan.domain.model.Cashier&#45;&gt;warikan.domain.model.Payment -->
<g id="edge2" class="edge">
<title>warikan.domain.model.Cashier&#45;&gt;warikan.domain.model.Payment</title>
<path fill="none" stroke="black" d="M421.96,-187.94C432.25,-178.68 445.13,-167.09 456.4,-156.94"/>
<polygon fill="black" stroke="black" points="458.81,-159.48 463.9,-150.19 454.13,-154.28 458.81,-159.48"/>
</g>
<!-- warikan.domain.model.Cashier&#45;&gt;warikan.domain.model.PaymentType -->
<g id="edge3" class="edge">
<title>warikan.domain.model.Cashier&#45;&gt;warikan.domain.model.PaymentType</title>
<path fill="none" stroke="black" d="M389.25,-187.94C382.14,-179.1 373.3,-168.14 365.41,-158.33"/>
<polygon fill="black" stroke="black" points="368.05,-156.03 359.05,-150.44 362.6,-160.42 368.05,-156.03"/>
</g>
<!-- warikan.domain.model.PaymentWeight -->
<g id="node12" class="node">
<title>warikan.domain.model.PaymentWeight</title>
<polygon fill="#eedd82" stroke="black" points="668,-77 396,-77 396,-39 668,-39 668,-77"/>
<text text-anchor="middle" x="532" y="-61.8" font-family="Times New Roman,serif" font-size="14.00">memo: 少ない人は0円のこともある</text>
<text text-anchor="middle" x="532" y="-46.8" font-family="Times New Roman,serif" font-size="14.00">PaymentWeight</text>
</g>
<!-- warikan.domain.model.Cashier&#45;&gt;warikan.domain.model.PaymentWeight -->
<g id="edge4" class="edge">
<title>warikan.domain.model.Cashier&#45;&gt;warikan.domain.model.PaymentWeight</title>
<path fill="none" stroke="black" d="M403.16,-187.89C404.2,-167.89 408.67,-134.77 426,-113 436.49,-99.82 451.06,-89.56 466.04,-81.69"/>
<polygon fill="black" stroke="black" points="467.96,-84.65 475.39,-77.1 464.87,-78.36 467.96,-84.65"/>
</g>
<!-- warikan.domain.model.Main -->
<g id="node6" class="node">
<title>warikan.domain.model.Main</title>
<polygon fill="#eedd82" stroke="black" points="362,-300 308,-300 308,-264 362,-264 362,-300"/>
<text text-anchor="middle" x="335" y="-278.3" font-family="Times New Roman,serif" font-size="14.00">Main</text>
</g>
<!-- warikan.domain.model.Main&#45;&gt;warikan.domain.model.members.Member -->
<g id="edge13" class="edge">
<title>warikan.domain.model.Main&#45;&gt;warikan.domain.model.members.Member</title>
<path fill="none" stroke="black" d="M307.53,-280.52C241.89,-279.08 80.2,-273.76 64,-256 43.34,-233.34 47.23,-212.68 64,-187 81.38,-160.39 115.1,-146.81 142.85,-139.93"/>
<polygon fill="black" stroke="black" points="143.78,-143.3 152.76,-137.68 142.24,-136.48 143.78,-143.3"/>
</g>
<!-- warikan.domain.model.Main&#45;&gt;warikan.domain.model.members.MemberName -->
<g id="edge14" class="edge">
<title>warikan.domain.model.Main&#45;&gt;warikan.domain.model.members.MemberName</title>
<path fill="none" stroke="black" d="M307.9,-280.7C239.22,-279.67 62.57,-275.15 45,-256 -6.99,-199.33 87.22,-121.37 143.07,-82.71"/>
<polygon fill="black" stroke="black" points="145.05,-85.6 151.35,-77.08 141.11,-79.81 145.05,-85.6"/>
</g>
<!-- warikan.domain.model.Main&#45;&gt;warikan.domain.model.members.SecretaryType -->
<g id="edge15" class="edge">
<title>warikan.domain.model.Main&#45;&gt;warikan.domain.model.members.SecretaryType</title>
<path fill="none" stroke="black" d="M307.88,-280.86C235.86,-280.22 43.99,-276.59 25,-256 -18.54,-208.8 21.17,-127.68 46.95,-85.78"/>
<polygon fill="black" stroke="black" points="49.98,-87.55 52.37,-77.22 44.06,-83.81 49.98,-87.55"/>
</g>
<!-- warikan.domain.model.Main&#45;&gt;warikan.domain.model.Cashier -->
<g id="edge6" class="edge">
<title>warikan.domain.model.Main&#45;&gt;warikan.domain.model.Cashier</title>
<path fill="none" stroke="black" d="M350.77,-263.84C359.61,-254.22 370.79,-242.06 380.53,-231.46"/>
<polygon fill="black" stroke="black" points="383.12,-233.8 387.31,-224.07 377.97,-229.07 383.12,-233.8"/>
</g>
<!-- warikan.domain.model.Main&#45;&gt;warikan.domain.model.Money -->
<g id="edge7" class="edge">
<title>warikan.domain.model.Main&#45;&gt;warikan.domain.model.Money</title>
<path fill="none" stroke="black" d="M362.25,-281.33C395.05,-280.71 451.08,-276.37 494,-256 580.81,-214.8 658.43,-128.34 693.78,-84.97"/>
<polygon fill="black" stroke="black" points="696.54,-87.13 700.08,-77.14 691.09,-82.74 696.54,-87.13"/>
</g>
<!-- warikan.domain.model.Party -->
<g id="node8" class="node">
<title>warikan.domain.model.Party</title>
<polygon fill="#eedd82" stroke="black" points="306,-224 252,-224 252,-188 306,-188 306,-224"/>
<text text-anchor="middle" x="279" y="-202.3" font-family="Times New Roman,serif" font-size="14.00">Party</text>
</g>
<!-- warikan.domain.model.Main&#45;&gt;warikan.domain.model.Party -->
<g id="edge8" class="edge">
<title>warikan.domain.model.Main&#45;&gt;warikan.domain.model.Party</title>
<path fill="none" stroke="black" d="M322.01,-263.84C314.87,-254.4 305.89,-242.53 297.98,-232.07"/>
<polygon fill="black" stroke="black" points="300.74,-229.93 291.92,-224.07 295.16,-234.16 300.74,-229.93"/>
</g>
<!-- warikan.domain.model.Main&#45;&gt;warikan.domain.model.Payment -->
<g id="edge9" class="edge">
<title>warikan.domain.model.Main&#45;&gt;warikan.domain.model.Payment</title>
<path fill="none" stroke="black" d="M362.08,-281.68C385.98,-280.82 420.29,-275.79 442,-256 469.02,-231.36 478.26,-188.47 481.4,-160.41"/>
<polygon fill="black" stroke="black" points="484.92,-160.37 482.36,-150.09 477.95,-159.73 484.92,-160.37"/>
</g>
<!-- warikan.domain.model.Main&#45;&gt;warikan.domain.model.PaymentType -->
<g id="edge10" class="edge">
<title>warikan.domain.model.Main&#45;&gt;warikan.domain.model.PaymentType</title>
<path fill="none" stroke="black" d="M336.17,-263.73C337.88,-238.33 341.1,-190.65 343.15,-160.43"/>
<polygon fill="black" stroke="black" points="346.66,-160.37 343.84,-150.16 339.67,-159.9 346.66,-160.37"/>
</g>
<!-- warikan.domain.model.PaymentTypeName -->
<g id="node11" class="node">
<title>warikan.domain.model.PaymentTypeName</title>
<polygon fill="#eedd82" stroke="black" points="378,-76 252,-76 252,-40 378,-40 378,-76"/>
<text text-anchor="middle" x="315" y="-54.3" font-family="Times New Roman,serif" font-size="14.00">PaymentTypeName</text>
</g>
<!-- warikan.domain.model.Main&#45;&gt;warikan.domain.model.PaymentTypeName -->
<g id="edge11" class="edge">
<title>warikan.domain.model.Main&#45;&gt;warikan.domain.model.PaymentTypeName</title>
<path fill="none" stroke="black" d="M332.24,-263.92C328.34,-240.72 321.02,-200.57 315,-187 307,-168.96 295.07,-169.78 289,-151 281.87,-128.94 290.26,-103.57 299.35,-85.07"/>
<polygon fill="black" stroke="black" points="302.53,-86.55 304.09,-76.07 296.34,-83.28 302.53,-86.55"/>
</g>
<!-- warikan.domain.model.Main&#45;&gt;warikan.domain.model.PaymentWeight -->
<g id="edge12" class="edge">
<title>warikan.domain.model.Main&#45;&gt;warikan.domain.model.PaymentWeight</title>
<path fill="none" stroke="black" d="M362.1,-278.39C394.97,-274.79 447.96,-267.4 464,-256 507.99,-224.73 508.99,-202.54 525,-151 531.43,-130.28 533.02,-105.74 533.09,-87.22"/>
<polygon fill="black" stroke="black" points="536.58,-87.04 532.97,-77.08 529.58,-87.12 536.58,-87.04"/>
</g>
<!-- warikan.domain.model.Party&#45;&gt;warikan.domain.model.members.Member -->
<g id="edge22" class="edge">
<title>warikan.domain.model.Party&#45;&gt;warikan.domain.model.members.Member</title>
<path fill="none" stroke="black" d="M257.2,-187.94C245.6,-178.86 231.14,-167.55 218.36,-157.54"/>
<polygon fill="black" stroke="black" points="220.29,-154.61 210.25,-151.2 215.97,-160.12 220.29,-154.61"/>
</g>
<!-- warikan.domain.model.Party&#45;&gt;warikan.domain.model.PaymentType -->
<g id="edge21" class="edge">
<title>warikan.domain.model.Party&#45;&gt;warikan.domain.model.PaymentType</title>
<path fill="none" stroke="black" d="M294.64,-187.94C302.82,-179.01 312.99,-167.92 322.05,-158.04"/>
<polygon fill="black" stroke="black" points="324.84,-160.18 329.01,-150.44 319.68,-155.45 324.84,-160.18"/>
</g>
<!-- warikan.domain.model.Payment&#45;&gt;warikan.domain.model.members.Member -->
<g id="edge24" class="edge">
<title>warikan.domain.model.Payment&#45;&gt;warikan.domain.model.members.Member</title>
<path fill="none" stroke="black" d="M461.9,-150.19C452,-157.56 439.61,-165.21 427,-169 351.24,-191.77 325.27,-190.03 249,-169 239.31,-166.33 229.62,-161.7 220.86,-156.61"/>
<polygon fill="black" stroke="black" points="222.46,-153.49 212.12,-151.19 218.78,-159.44 222.46,-153.49"/>
</g>
<!-- warikan.domain.model.Payment&#45;&gt;warikan.domain.model.Money -->
<g id="edge23" class="edge">
<title>warikan.domain.model.Payment&#45;&gt;warikan.domain.model.Money</title>
<path fill="none" stroke="black" d="M515.84,-123.78C552.99,-115.2 615.29,-99.56 676.53,-76.85"/>
<polygon fill="black" stroke="black" points="677.83,-80.1 685.95,-73.3 675.36,-73.55 677.83,-80.1"/>
</g>
<!-- warikan.domain.model.PaymentType&#45;&gt;warikan.domain.model.PaymentTypeName -->
<g id="edge25" class="edge">
<title>warikan.domain.model.PaymentType&#45;&gt;warikan.domain.model.PaymentTypeName</title>
<path fill="none" stroke="black" d="M337.89,-113.94C334.39,-105.54 330.09,-95.23 326.17,-85.81"/>
<polygon fill="black" stroke="black" points="329.34,-84.33 322.27,-76.44 322.88,-87.02 329.34,-84.33"/>
</g>
<!-- warikan.domain.model.PaymentType&#45;&gt;warikan.domain.model.PaymentWeight -->
<g id="edge26" class="edge">
<title>warikan.domain.model.PaymentType&#45;&gt;warikan.domain.model.PaymentWeight</title>
<path fill="none" stroke="black" d="M389.32,-113.94C415.11,-104 447.89,-91.38 475.52,-80.75"/>
<polygon fill="black" stroke="black" points="476.99,-83.93 485.06,-77.07 474.47,-77.4 476.99,-83.93"/>
</g>
</g>
</svg>
